<svg id="Layer_1" data-name="Layer 1" xmlns="http://www.w3.org/2000/svg" viewBox="0 0 243.98 243.96">
  <defs>
    <style>
      .cls-1 {
        fill: none;
        stroke: #fff;
        stroke-miterlimit: 10;
        stroke-width: 4px;
      }
    </style>
  </defs>
  <title>clock</title>
  <g id="VO9rn0.tif">
    <g>
      <path class="cls-1" d="M122,242A119.86,119.86,0,0,1,2,121.67C2,55.58,55.63,2.09,121.92,2A120,120,0,1,1,122,242ZM122,207a85,85,0,1,0-85-85.18A84.91,84.91,0,0,0,122,207Z"/>
      <path class="cls-1" d="M122,122v-3.26q0-25,0-50c0-5.17,1.56-6.75,6.65-6.76,2.42,0,4.83,0,7.25,0,4.33,0,6.07,1.76,6.07,6.08q0,24.24,0,48.47c0,6.41,0,12.83,0,19.24,0,4.33-1.74,6.14-6,6.15q-24,0-48,0c-4.17,0-5.91-1.82-6-6,0-2.5,0-5,0-7.5,0-4.82,1.64-6.49,6.42-6.49q15.24,0,30.48,0Z"/>
    </g>
  </g>
</svg>
