<svg id="Layer_1" data-name="Layer 1" xmlns="http://www.w3.org/2000/svg" viewBox="0 0 195.03 226.26"><defs><style>.cls-1{fill:#fdfdfd;}</style></defs><title>database</title><g id="w6HorA.tif"><path class="cls-1" d="M97.35,3q13.41,0,26.79,1.34C141.5,6.07,158.68,9,174.71,16.46c4.95,2.31,9.64,5,13.36,9.17a14,14,0,0,1,3.88,10c-.08,3.87-.25,7.75,0,11.6.52,7-2.77,11.89-8.16,15.76-7.61,5.47-16.23,8.72-25.16,11.2a197.94,197.94,0,0,1-42.19,6.78c-6.28.35-12.57.57-16.32.74-23.57-.22-44.4-2-64.73-7.8-7.7-2.21-15.17-5-21.93-9.41a40.46,40.46,0,0,1-5.14-3.93,14.75,14.75,0,0,1-5.26-12,90.94,90.94,0,0,0,0-11C2.5,30.7,5.69,25.88,10.89,22c6.94-5.14,14.87-8.22,23.05-10.68A199.85,199.85,0,0,1,71.72,4.27Q84.53,3,97.35,3m0-3V0h0c-8.68,0-17.4.43-25.93,1.28A202.58,202.58,0,0,0,33.08,8.48c-7,2.1-16,5.26-24,11.14C2.43,24.56-.52,30.51.08,37.81a88.13,88.13,0,0,1,0,10.64A17.72,17.72,0,0,0,6.33,62.78,43.48,43.48,0,0,0,11.85,67C18,71,25.2,74.08,34.59,76.78c18.46,5.29,38.06,7.66,65.53,7.91h.16l3.63-.15c3.63-.15,8.15-.33,12.72-.59a202,202,0,0,0,42.83-6.88c11.15-3.1,19.2-6.69,26.11-11.65s9.95-11,9.4-18.42c-.23-3.09-.15-6.18-.07-9.46q0-.93,0-1.86a17,17,0,0,0-4.65-12.06c-4.4-4.89-10-7.85-14.32-9.88C158.52,5.6,140.13,2.91,124.44,1.36,115.38.46,106.27,0,97.35,0Z"/><path class="cls-1" d="M3.12,76.73C5.22,78,7,79.17,8.88,80.21c11.63,6.52,24.26,10.06,37.24,12.55a269.34,269.34,0,0,0,50.79,4.72q11.39,0,22.81-.87c18.34-1.38,36.5-4,53.79-10.62,6.26-2.39,12.18-5.69,18.41-8.64,0,5.91-.1,12.12,0,18.32A15,15,0,0,1,187.47,107a42.12,42.12,0,0,1-12,8.1c-11.07,5.36-22.89,8.17-34.92,10.26a246.39,246.39,0,0,1-42.27,3.47q-7.66,0-15.33-.39c-18.77-.93-37.3-3.48-55.11-9.84-6.87-2.45-13.45-5.52-19-10.41C5,104.89,2.92,100.87,3.08,95.66c.17-5.57,0-11.14,0-16.72,0-.63,0-1.27,0-2.21m-3-5.33v7.53c0,1.7,0,3.4,0,5.1,0,3.79.05,7.7-.06,11.52-.18,5.79,2.1,10.81,6.77,14.91,5.1,4.48,11.26,7.86,20,11,16.06,5.73,33.85,8.91,56,10,5.25.26,10.46.39,15.48.39a247.46,247.46,0,0,0,42.78-3.52c10.8-1.88,23.5-4.59,35.72-10.52a44.27,44.27,0,0,0,12.82-8.7A18.06,18.06,0,0,0,195,95.61c-.09-4.32-.07-8.69-.05-12.91q0-2.7,0-5.34V72.61l-4.29,2c-2,.94-4,1.93-5.87,2.88-4.2,2.1-8.17,4.08-12.32,5.67-18.62,7.11-38.07,9.31-52.94,10.43-7.6.57-15.2.86-22.59.86a267.68,267.68,0,0,1-50.23-4.67c-15.28-2.93-26.49-6.7-36.34-12.22-1.2-.67-2.41-1.42-3.68-2.21l-2-1.22L.12,71.4Z"/><path class="cls-1" d="M191.84,123.9c0,7.5.25,14.63-.08,21.75-.24,5.27-3.88,8.73-7.88,11.66-7.51,5.5-16.09,8.72-25,11.2a207.9,207.9,0,0,1-42.39,6.89q-9.78.65-19.55.66-12.63,0-25.23-1.17c-16.34-1.55-32.47-4.28-47.77-10.56-6.32-2.6-12.4-5.68-17.11-10.86a13.92,13.92,0,0,1-3.78-9.83c.05-5.9,0-11.8,0-17.7,0-.56.05-1.12.09-1.93,1.57,1,2.93,1.83,4.33,2.65,11.91,7,25,10.7,38.41,13.3a267.47,267.47,0,0,0,50.84,4.72q3.62,0,7.25-.09c20.76-.5,41.31-2.73,61.34-8.55a92.44,92.44,0,0,0,26.46-12.13m3-5.65-4.68,3.17a89.53,89.53,0,0,1-25.62,11.73c-17.84,5.19-37.09,7.87-60.57,8.43-2.39.06-4.81.09-7.18.09A265.82,265.82,0,0,1,46.52,137c-16-3.08-27.5-7.07-37.46-12.94-.91-.53-1.82-1.1-2.79-1.7l-1.49-.92L.47,118.79l-.25,5.06c0,.26,0,.5,0,.72,0,.46-.06.9-.06,1.36q0,3,0,5.91c0,3.86,0,7.85,0,11.76a16.94,16.94,0,0,0,4.56,11.87c5.29,5.82,12.16,9.14,18.19,11.62,13.49,5.54,28.49,8.87,48.63,10.78,8.32.79,16.9,1.19,25.51,1.19,6.46,0,13.11-.23,19.75-.67a210.08,210.08,0,0,0,43-7c7.52-2.11,17.26-5.34,25.91-11.66,4.33-3.17,8.79-7.3,9.1-13.94.23-5,.18-10,.13-15.18,0-2.18,0-4.44,0-6.7v-5.65Z"/><path class="cls-1" d="M191.84,171.11c0,7.49.25,14.63-.08,21.75-.24,5.27-3.87,8.73-7.87,11.66-7.51,5.5-16.09,8.72-25,11.2a207.85,207.85,0,0,1-42.39,6.89q-9.78.65-19.55.66-12.63,0-25.23-1.17C55.43,220.54,39.3,217.81,24,211.52c-6.32-2.6-12.4-5.67-17.11-10.86a13.92,13.92,0,0,1-3.78-9.83c.05-5.9,0-11.8,0-17.7,0-.56.05-1.13.09-1.93,1.57,1,2.93,1.83,4.32,2.65,11.91,7,25,10.72,38.41,13.29a271.24,271.24,0,0,0,51,4.73q11.36,0,22.75-.86c16.3-1.22,32.41-3.62,48.06-8.54a90.74,90.74,0,0,0,24-11.38m3-5.65-4.68,3.17a87.85,87.85,0,0,1-23.24,11c-13.85,4.35-28.91,7-47.39,8.41-7.58.57-15.16.85-22.53.85a269.6,269.6,0,0,1-50.48-4.68c-15.87-3-27.42-7-37.45-12.93-.91-.53-1.82-1.1-2.79-1.7l-1.49-.92L.48,166l-.26,5.05c0,.26,0,.5,0,.71,0,.46-.06.9-.06,1.37q0,3,0,5.92c0,3.85,0,7.84,0,11.75a16.94,16.94,0,0,0,4.56,11.87c5.29,5.82,12.16,9.14,18.19,11.62,13.49,5.54,28.49,8.87,48.63,10.77,8.32.79,16.9,1.19,25.51,1.19,6.46,0,13.11-.23,19.75-.67a210,210,0,0,0,43-7c7.52-2.11,17.26-5.34,25.91-11.67,4.33-3.17,8.79-7.3,9.1-13.94.23-5,.18-10,.13-15.18,0-2.18,0-4.44,0-6.7v-5.65Z"/></g></svg>