<svg id="Layer_1" data-name="Layer 1" xmlns="http://www.w3.org/2000/svg" viewBox="0 0 359.5 253.47">
  <defs>
    <style>
      .cls-1 {
        fill: none;
        stroke: #fff;
        stroke-miterlimit: 10;
        stroke-width: 3px;
      }
    </style>
  </defs>
  <title>id</title>
  <g id="q3tfAE.tif">
    <g>
      <path class="cls-1" d="M181.16,8H314.64C330.35,8,341,18.62,341,34.34q0,93.61,0,187.23c0,15.7-10.66,26.41-26.29,26.41H47.23c-12.5,0-22.57-7.42-25.38-18.82a28.1,28.1,0,0,1-.8-6.66Q21,128,21,33.51C21,18.84,31.92,8,46.67,8Q113.91,8,181.16,8ZM41,48.06v1.73q0,86,0,172c0,4.51,1.9,6.24,6.77,6.24H314.24c5,0,6.77-1.76,6.77-6.75q0-85.36,0-170.73c0-.8,0-1.6,0-2.47Z"/>
      <path class="cls-1" d="M110.86,198c-10.08,0-20.17-.32-30.23.08-11.51.46-17.8-7.38-18.86-15.21-1.87-13.88-.05-27.45,6.74-39.9,3.37-6.17,9.21-9.21,16.2-9.78A4.84,4.84,0,0,1,88,134.32a34.68,34.68,0,0,0,46.07,0,5.1,5.1,0,0,1,3.51-1.12c7.92.74,13.93,4.75,17.21,11.91a69.69,69.69,0,0,1,5.76,36.29,18.92,18.92,0,0,1-8.65,14.24,15.59,15.59,0,0,1-9,2.32C132.18,198,121.52,198,110.86,198Z"/>
      <path class="cls-1" d="M111,138A30,30,0,1,1,141,108,29.86,29.86,0,0,1,111,138Z"/>
      <path class="cls-1" d="M241,168h53.23c5.18,0,6.73,1.54,6.74,6.67,0,2.58.06,5.17,0,7.75-.1,3.58-1.81,5.29-5.39,5.53-.66,0-1.33,0-2,0H188.38c-5.94,0-7.37-1.42-7.37-7.33,0-2,0-4,0-6,0-5,1.59-6.62,6.53-6.64,4.41,0,8.83,0,13.24,0Z"/>
      <path class="cls-1" d="M241.11,88h52.73c5.77,0,7.15,1.4,7.15,7.27,0,2.42.06,4.83,0,7.25-.11,3.46-1.78,5.15-5.23,5.43-.66.05-1.33,0-2,0H188.28c-5.81,0-7.27-1.44-7.27-7.17,0-2.33,0-4.67,0-7,.07-4.08,1.84-5.78,6.11-5.79Q214.12,88,241.11,88Z"/>
      <path class="cls-1" d="M211,128c7.91,0,15.82,0,23.73,0,4.54,0,6.23,1.68,6.26,6.14,0,2.58,0,5.16,0,7.74,0,4.27-1.8,6-6.12,6.06-11.74,0-23.48,0-35.22,0-4.16,0-8.33,0-12.49,0-4.35,0-6.09-1.77-6.14-6q0-4,0-8c0-4.14,1.79-5.89,6-5.91C195,128,203,128,211,128Z"/>
      <path class="cls-1" d="M281,128c4.58,0,9.16,0,13.74,0s6.23,1.69,6.27,6.14c0,2.75.06,5.5,0,8.24-.09,3.59-1.79,5.5-5.35,5.54q-14.61.16-29.22,0c-3.58,0-5.29-1.92-5.38-5.5q-.11-4.49,0-9c.09-3.55,1.86-5.34,5.47-5.41C271.32,127.95,276.15,128,281,128Z"/>
    </g>
  </g>
</svg>
