<svg id="Layer_1" data-name="Layer 1" xmlns="http://www.w3.org/2000/svg" viewBox="0 0 233.94 157.03"><defs><style>.cls-1{fill:none;stroke:#fdfdfd;stroke-miterlimit:10;stroke-width:3px;}</style></defs><title>laptop</title><g id="hVDT44.tif"><path class="cls-1" d="M117,1.58c21.42,0,42.85.2,64.26-.08a20,20,0,0,1,20.51,20.4c-.25,27.58-.07,55.16-.09,82.74,0,11.81-8.28,20.08-20.11,20.08H52.49c-11.85,0-20.13-8.25-20.13-20.05q0-41.46,0-82.93c0-12,8.19-20.15,20.2-20.16Q84.79,1.57,117,1.58Zm.14,15.36H52.9c-3.88,0-5.16,1.31-5.16,5.23q0,40.79,0,81.58c0,4.39,1.2,5.61,5.58,5.61H180.69c4.48,0,5.65-1.18,5.65-5.73q0-40.6,0-81.2c0-4.3-1.19-5.49-5.48-5.49Z"/><path class="cls-1" d="M1.56,132.55H232.38c0,4.29.17,8.51-.06,12.7-.14,2.48-1.82,4.32-3.81,5.76a24.31,24.31,0,0,1-12.73,4.39c-1.21.09-2.44.11-3.65.11H22c-4.94,0-9.69-.7-14.12-3.07-4.13-2.21-6.62-5.29-6.31-10.27C1.72,139.06,1.56,135.91,1.56,132.55Z"/></g></svg>