<?xml version="1.0" encoding="utf-8"?>
<!-- Generator: Adobe Illustrator 22.1.0, SVG Export Plug-In . SVG Version: 6.00 Build 0)  -->
<svg version="1.1" id="Layer_1" xmlns="http://www.w3.org/2000/svg" xmlns:xlink="http://www.w3.org/1999/xlink" x="0px" y="0px"
	 viewBox="0 0 142.9 171.2" style="enable-background:new 0 0 142.9 171.2;" xml:space="preserve">
<style type="text/css">
	.st0{fill:none;stroke:#FDFDFD;stroke-width:3;stroke-miterlimit:10;}
</style>
<title>id</title>
<g id="q3tfAE.tif">
	<g>
		<path class="st0" d="M71.2,169.6c-14.1,0-28.3-0.4-42.3,0.1C12.8,170.4,4,159.4,2.5,148.4c-2.6-19.4-0.1-38.5,9.4-55.9
			c4.7-8.6,12.9-12.9,22.7-13.7c1.7-0.1,3.3,0.5,4.6,1.6c18.4,16.4,46.1,16.4,64.5,0c1.4-1.1,3.1-1.7,4.9-1.6
			c11.1,1,19.5,6.7,24.1,16.7c7.2,15.9,10,33.5,8.1,50.8c-0.7,8.2-5.2,15.5-12.1,19.9c-3.8,2.3-8.2,3.5-12.6,3.2
			C101.1,169.6,86.2,169.6,71.2,169.6z"/>
		<path class="st0" d="M71.4,85.5c-23.2,0-42-18.8-42-42s18.8-42,42-42s42,18.8,42,42c0.1,23.1-18.5,41.9-41.6,42
			C71.7,85.5,71.6,85.5,71.4,85.5z"/>
	</g>
</g>
</svg>
