<svg xmlns="http://www.w3.org/2000/svg" viewBox="0 0 400 407"><defs><style>.cls-1{fill:#dadada;}.cls-2{fill:#fdfdfd;}</style></defs><title>silhouette</title><g id="Layer_1" data-name="Layer 1"><rect class="cls-1" width="400" height="400"/></g><g id="Layer_2" data-name="Layer 2"><path class="cls-2" d="M200,218.27S69.69,221.64,58.45,278.94V407H341.55V278.94C330.31,221.64,200,218.27,200,218.27Z"/><rect class="cls-2" x="126.23" y="58" width="147.55" height="181.25" rx="66" ry="66"/><path class="cls-1" d="M207.77,61a63.19,63.19,0,0,1,63,63v49.25a63.19,63.19,0,0,1-63,63H192.23a63.19,63.19,0,0,1-63-63V124a63.19,63.19,0,0,1,63-63h15.55m0-6H192.23a69.08,69.08,0,0,0-69,69v49.25a69.08,69.08,0,0,0,69,69h15.55a69.08,69.08,0,0,0,69-69V124a69.08,69.08,0,0,0-69-69Z"/></g></svg>