<svg id="Layer_1" data-name="Layer 1" xmlns="http://www.w3.org/2000/svg" viewBox="0 0 260.21 260.86"><defs><style>.cls-1{fill:none;stroke:#fdfdfd;stroke-miterlimit:10;stroke-width:4px;}</style></defs><title>wrench</title><g id="h8pbHf.tif"><path class="cls-1" d="M187.11,2c12.74.2,24.94,2.55,36.08,9.16,5.19,3.08,5.16,7.26-.05,10.27q-21.19,12.24-42.43,24.4a3.44,3.44,0,0,0-2,3.52q.12,15.25,0,30.5a3.2,3.2,0,0,0,1.93,3.31Q193.89,90.39,207,97.84a3.07,3.07,0,0,0,3.59-.12q18.3-11,36.7-21.85a33.83,33.83,0,0,1,4.46-2.24c3.31-1.35,6.57.56,6.41,4.14a48.63,48.63,0,0,1-1.7,11.54c-8.2,28-26.6,45.76-55.17,51.37-26.12,5.12-48.54-3.21-65.82-23.48C117.33,95.87,113.78,71.27,124,45.64c9.18-23,27-37.12,51.37-42.35C179.2,2.47,183.16,2.42,187.11,2Z"/><path class="cls-1" d="M114.37,101.55c9,21.05,23.81,35.91,44.81,44.86-.7.76-1.22,1.38-1.79,1.95L53.87,251.95c-9.25,9.26-21.27,9.21-30.5-.13-5-5.1-10.08-10.19-15-15.36-7-7.28-8.27-16.16-3.52-24.46a24.85,24.85,0,0,1,4-5q52-52.08,104.08-104.1C113.3,102.51,113.68,102.19,114.37,101.55ZM48.74,202a10,10,0,1,0,10,10A10.16,10.16,0,0,0,48.74,202Z"/></g></svg>